<svg xmlns="http://www.w3.org/2000/svg" viewBox="0 0 278.899994 46.799999" width="59.593999" height="10.000000">
  <path d="M212.5,0.2v36.3c0,2.4 1.1,3.6 3.5,3.6h12v4.1c0,0.5 -0.3,0.8 -0.8,0.8h-19.4c-6,0 -7,-3.3 -7,-6.3v-36c0,-1.7 0.6,-2.5 2.7,-2.5L212.5,0.2" fill="#000000"/>
  <path d="M190.2,0.2v42.5c0,1.9 -0.8,2.4 -2.4,2.4h-9.2V2.5c0,-1.4 0.5,-2.4 2.5,-2.4H190.2" fill="#000000"/>
  <path d="M0,6.3c0,-3.5 0,-6.2 5.7,-6.2h24.6v4.3c0,0.3 -0.2,0.6 -0.6,0.6H14.9C13,5.1 12,6 12,8.1v11.4h17.4V24c0,0.5 -0.3,0.6 -0.6,0.6H12v18c0,1.7 -0.9,2.4 -2.8,2.4H0V6.3" fill="#000000"/>
  <path d="M48.2,0.2v34.3c0,3 0.5,5.1 2.5,6.2c2.7,1.6 7.4,1.6 10.3,0c1.9,-1.1 2.7,-2.8 2.7,-6.2V2.4c0,-1.4 0.5,-2.2 2.5,-2.2h9v33.2c0,7.7 -4.9,10.9 -9.2,12c-5.7,1.6 -14.4,1.6 -19.8,0c-6.5,-1.9 -9.5,-5.7 -9.5,-12v-31C36.8,0.9 37.3,0 39,0h9.2" fill="#000000"/>
  <path d="M265.8,0.2c-2.2,0 -3.6,1.1 -4.1,3.2l-7.3,31h-0.2l-7.7,-34.1h-10.3c-2.1,0 -2.7,0.9 -2.7,2.7v42.3h4.4c0.6,0 0.9,-0.3 0.9,-1.1V8.5h0.6l9.3,36.5h6.2c2.4,0 3.2,-0.9 3.8,-3.2l8.4,-33.3h0.6V45h8.2c2.1,0 2.8,-0.8 2.8,-2.7V0.2H265.8" fill="#000000"/>
  <path d="M129.7,24.5h-11.5V45h9.2c1.6,0 2.4,-0.5 2.4,-2.4C129.7,42.7 129.7,34 129.7,24.5" fill="#000000"/>
  <path d="M129.1,15.8c0.5,-0.3 0.6,-0.6 0.6,-1.3V0.2h-9c-2.1,0 -2.5,0.9 -2.5,2.4v21.8L129.1,15.8" fill="#FB0020"/>
  <path d="M89.6,41.6c5.1,-0.6 6.6,-3.6 6.6,-8.1v-31c0,-1.9 0.9,-2.4 2.2,-2.4h9.2v29.2c0,7.1 -1.6,10.7 -5.7,13.9c-2.2,1.6 -6,3.5 -14.5,3.5c-4.7,0 -7,-0.3 -7.3,-0.3c-0.5,-0.2 -0.6,-0.3 -0.6,-0.6V42C81.8,41.9 86.3,42 89.6,41.6" fill="#000000"/>
  <path d="M147.3,0.2c-5.7,0 -5.7,2.8 -5.7,6.2v11.5c0,0.3 -0.2,0.3 -0.2,0.5l-7.9,6.2h8.1V45h9.2c1.9,0 2.8,-0.6 2.8,-2.4V24.5h16.7c0.3,0 0.6,-0.2 0.6,-0.6v-4.6h-17.4V7.9c0,-2.1 0.9,-3 3,-3h14.9c0.5,0 0.6,-0.3 0.6,-0.6V0.2H147.3" fill="#000000"/>
</svg>