<svg xmlns="http://www.w3.org/2000/svg" viewBox="0 0 1280.000000 270.000000" width="52.148442" height="11.000000">
  <path d="m782.9,134.9c0,66.9 54.2,121.2 121.2,121.2l0,-0c66.9,-0 121.2,-54.2 121.2,-121.2l0,-0c0,-66.9 -54.2,-121.2 -121.2,-121.2l0,-0c-66.9,-0 -121.2,54.2 -121.2,121.2m42.1,-0c0,-43.7 35.4,-79.1 79.1,-79.1l0,-0c43.7,-0 79.1,35.4 79.1,79.1l0,-0c0,43.7 -35.4,79.1 -79.1,79.1l0,-0c-43.7,-0 -79.1,-35.4 -79.1,-79.1m-575.7,-0c0,66.9 54.2,121.2 121.2,121.2l0,-0c66.9,-0 121.2,-54.2 121.2,-121.2l0,-0c0,-66.9 -54.2,-121.2 -121.2,-121.2l0,-0c-66.9,-0 -121.2,54.2 -121.2,121.2m42.1,-0c0,-43.7 35.4,-79.1 79.1,-79.1l0,-0c43.7,-0 79.1,35.4 79.1,79.1l0,-0c0,43.7 -35.4,79.1 -79.1,79.1l0,-0c-43.7,-0 -79.1,-35.4 -79.1,-79.1m392.7,-118.6l0,147.4l-102.1,-147.4L548.3,16.2L548.3,252.4l42.1,-0l0,-148.1L693,252.4l33,-0l0,-236.2zM1082,16.9L1082,253.1l42.1,-0l0,-105.1l87.6,105.1l54.7,-0l-71.8,-86.1c31,-9.9 53.5,-38.9 53.5,-73.2l0,-0c0,-42.4 -34.3,-76.7 -76.6,-76.8l0,-0 0,-0zM1124.1,59l46.8,-0c19.2,-0 34.8,15.6 34.8,34.8l0,-0c0,19.2 -15.6,34.8 -34.8,34.8l0,-0L1124.1,128.6ZM150.4,16.9l0,95.7l-93.6,-0l0,-95.7L14.7,16.9L14.7,253.1l42.1,-0l0,-98.4l93.6,-0l0,98.4l42.1,-0l0,-236.2z" fill="#000000" stroke="#000000"/>
</svg>