<svg xmlns="http://www.w3.org/2000/svg" viewBox="0 0 149.899994 153.100006" width="17.623750" height="18.000000">
  <path d="M16.9,137.7l-11.5,0l0,-10.1l-5.2,0l0,25.1l5.2,0l0,-10.2l11.5,0l0,10.2l5.1,0l0,-25.1l-5.1,0z" fill="#000000"/>
  <path d="M45.7,142c0,4.1 -2,6.3 -5.7,6.3c-3.7,0 -5.8,-2.2 -5.8,-6.5v-14.2h-5.1V142c0,7.1 3.9,11.1 10.8,11.1c6.9,0 10.9,-4.1 10.9,-11.4v-14.2h-5.1V142z" fill="#000000"/>
  <path d="M104.7,144.9l-5.7,-17.3l-4.2,0l-5.7,17.3l-5.5,-17.3l-5.5,0l8.8,25.1l4.2,0l5.8,-16.5l5.7,16.5l4.2,0l8.8,-25.1l-5.3,0z" fill="#000000"/>
  <path d="M124.8,141.9l9.3,0l0,-4.6l-9.3,0l0,-5.1l13.5,0l0,-4.6l-18.6,0l0,25.1l19,0l0,-4.6l-13.9,0z" fill="#000000"/>
  <path d="M144.8,127.6h5v25.2h-5z" fill="#000000"/>
  <path d="M72.4,147.5l2.3,5.2H80l-11,-25.2h-4.5l-11.1,25.2h5.2l2.3,-5.2H72.4zM66.6,133.9l3.9,9h-7.7L66.6,133.9z" fill="#000000"/>
  <path d="M139,44.7c0.8,-12.9 -12.1,-24.8 -12.1,-24.8S102.8,49 85.3,87.3c-0.1,0.2 -0.1,0.5 0.1,0.7c0.1,0.1 0.4,0.2 0.7,0.1c6.6,-3.3 33.9,-17.3 45.4,-28.3C131.5,59.8 138.7,54 139,44.7M108.4,15.6c0,0 -3,-11.2 -15.2,-14.2c0,0 -3.5,-0.9 -7.3,-1.4c0,0 -13.6,17.6 -7,83.8c0,0.3 0.2,0.5 0.4,0.5c0.2,0.1 0.5,0 0.7,-0.3c4.4,-6.3 24.3,-35.9 28.4,-53.9C108.3,30.2 110.5,21.5 108.4,15.6M89.7,97.5c-0.1,0.1 -0.1,0.5 0.1,0.7c4.4,3.2 17.8,12.5 24.2,14.3c0,0 11.9,4.1 22.2,-13.7c0,0 -34.6,-1.2 -46.1,-1.6C90,97.2 89.7,97.3 89.7,97.5M148.5,58.1c0,0 -39.1,21 -59.4,34.7c-0.1,0.1 -0.3,0.3 -0.2,0.7c0.1,0.2 0.2,0.4 0.5,0.4c7.2,0 34.7,0 35.4,-0.1c0,0 3.5,-0.1 7.9,-1.8c0,0 9.8,-3.1 14.8,-14.2C147.5,77.7 152,68.6 148.5,58.1M60.7,92.7C40.5,79.1 1.3,58.1 1.3,58.1c-3.5,10.6 1,19.6 1,19.6c5.1,11.1 14.8,14.2 14.8,14.2c4.4,1.7 7.9,1.8 7.9,1.8c0.7,0.1 28.1,0.1 35.4,0.1c0.2,0 0.4,-0.2 0.5,-0.4C61,93 60.9,92.8 60.7,92.7M59.7,97.2c-11.5,0.4 -46.1,1.6 -46.1,1.6c10.3,17.8 22.2,13.7 22.2,13.7c6.4,-1.8 19.8,-11.2 24.2,-14.3c0.3,-0.2 0.2,-0.6 0.1,-0.7C60.1,97.3 59.8,97.2 59.7,97.2M56.7,1.4c-12.2,3 -15.2,14.2 -15.2,14.2c-2.1,5.9 0.1,14.6 0.1,14.6c4.1,18 24,47.6 28.4,53.9c0.2,0.2 0.4,0.3 0.7,0.3c0.2,0 0.3,-0.2 0.4,-0.5c6.6,-66.3 -7,-83.8 -7,-83.8C60.2,0.5 56.7,1.4 56.7,1.4M22.9,19.9c0,0 -13,11.9 -12.1,24.8c0.4,9.3 7.6,15.1 7.6,15.1c11.5,11 38.8,25.1 45.4,28.3c0.3,0.1 0.5,0.1 0.7,-0.1c0.2,-0.2 0.2,-0.5 0.1,-0.7C47,49 22.9,19.9 22.9,19.9" fill="#CE0E2D"/>
</svg>