<svg xmlns="http://www.w3.org/2000/svg" viewBox="0 0 500.000000 114.000000" width="48.247685" height="11.000000">
  <path d="m285.4,103.6 l28.8,-43.6 -0.1,8.6 0,34.9 17.2,0 0,-70.6 -17.1,0 -37.8,56.8 -37,-56.8 -17.1,0 0,70.6 17.2,0 0,-34.9 -0.1,-8.6 28.8,43.6zM10,10.4 L10,99.1c0,3.1 2.1,4.6 4.8,4.6l80.9,0 0,-12.5 -63.3,0c-1.7,0 -2.4,-1.1 -2.4,-3.2l0,-77.6zM189.4,103.7c4.7,0 5.9,-1.8 8.3,-4.8 2.4,-3 5.9,-11.3 5.9,-20.8l0,-45 -17.2,0 0,41.9c0,5.8 0,11.6 -2.2,13.8 -2.2,2.2 -5.4,2.7 -10.7,2.7l-35.6,0c-5.4,0 -8.5,-0.4 -10.7,-2.7 -2.2,-2.2 -2.2,-8 -2.2,-13.8l0,-41.9 -17.2,0 0,45c0,9.5 3.6,17.8 5.9,20.8 2.4,3 3.5,4.8 8.3,4.8zM371.7,103.7 L354.5,103.7 354.5,33.1 371.7,33.1zM490,103.5 L447.7,67l39.4,-33.9 -21.8,0 -28.6,24.5 -28.4,-24.6 -21.9,0 39.6,34.1 -42.4,36.7 21.8,0 31.5,-27.3 31.4,27.2z" fill="#000000"/>
</svg>