<svg xmlns="http://www.w3.org/2000/svg" viewBox="0 0 205.080002 46.000000" width="71.332160" height="16.000000">
  <path d="M131.97,12.37a10.12,10.12 0,1 0,10.11 10.12,10.12 10.12,0 0,0 -10.11,-10.12m0,16.45a6.33,6.33 0,1 1,6.32 -6.33,6.33 6.33,0 0,1 -6.32,6.33" fill="#001427"/>
  <path d="M119.63,29.33h0.81v3.79h-0.81a7.92,7.92 0,0 1,-7.9 -7.91L111.73,7.82h3.79v5.06h4.89v3.79h-4.89v8.54a4.13,4.13 0,0 0,4.11 4.12" fill="#001427"/>
  <path d="M165.89,12.37a10.12,10.12 0,1 0,10.11 10.12,10.12 10.12,0 0,0 -10.11,-10.12m0,16.45a6.33,6.33 0,1 1,6.32 -6.33,6.33 6.33,0 0,1 -6.32,6.33" fill="#001427"/>
  <path d="M194.97,12.37a10.12,10.12 0,1 0,6.48 17.89v2h3.62v-9.47c0,-0.1 0.01,-0.19 0.01,-0.29a10.12,10.12 0,0 0,-10.11 -10.12m0,16.45a6.33,6.33 0,1 1,6.32 -6.33,6.33 6.33,0 0,1 -6.32,6.33" fill="#001427"/>
  <path d="M152.52,12.37h1.8L154.32,16.17h-1.8a4.13,4.13 0,0 0,-4.11 4.12v12.05h-3.79L144.62,20.28a7.92,7.92 0,0 1,7.9 -7.91" fill="#001427"/>
  <path d="M178.54,7.31h3.8v24.94h-3.8z" fill="#001427"/>
  <path d="M86.44,20.79v12.03L82.65,32.82L82.65,20.79a4.11,4.11 0,1 0,-8.23 0v12.03h-3.79L70.63,20.79a4.12,4.12 0,1 0,-8.23 0v12.03h-3.79L58.61,20.79a7.89,7.89 0,0 1,13.9 -5.14,7.91 7.91,0 0,1 13.93,5.14" fill="#001427"/>
  <path d="M99.11,12.88a10.12,10.12 0,1 0,10.08 10.12,10.13 10.13,0 0,0 -10.08,-10.12m0,16.45a6.33,6.33 0,1 1,6.32 -6.33,6.33 6.33,0 0,1 -6.32,6.33" fill="#001427"/>
  <path d="M36.99,34.62a33.01,33.01 0,0 0,-2.92 -8.04,5.29 5.29,0 0,0 -4.53,-2.94c-1.43,0.03 -2.67,0.81 -4.21,2.98a36.01,36.01 0,0 0,-2.36 4.6s-0.56,-1.29 -1.21,-2.58a16,16 0,0 0,-1.15 -2.03c-1.54,-2.16 -2.79,-2.95 -4.21,-2.98a5.29,5.29 0,0 0,-4.53 2.93,33.09 33.09,0 0,0 -2.92,8.05L7.28,34.62l8.82,-28.97 6.81,22.63 0.05,0.04 0.05,-0.04 6.81,-22.63 8.82,28.97ZM22.97,0a23,23 0,1 0,22.98 23,22.98 22.98,0 0,0 -22.98,-23" fill="#001427"/>
</svg>