<svg xmlns="http://www.w3.org/2000/svg" viewBox="0 0 55.000000 14.470000" width="38.009677" height="10.000000">
  <path d="M0,3.516L0,14.43L2.484,14.43C2.484,11.737 2.484,9.617 2.484,8.07C2.484,5.75 4.562,4.805 5.715,4.805C6.868,4.805 6.452,4.805 7.384,4.805C8.568,4.805 8.784,5.922 8.784,7.211C8.784,8.07 8.784,10.477 8.784,14.43L11,14.43C11,9.789 11,7.039 11,6.18C11,4.289 9.847,2.742 7.806,2.742C5.766,2.742 6.653,2.742 6.032,2.742C5.411,2.742 4.186,2.742 2.839,3.802C2.689,3.916 2.571,3.998 2.484,4.047C2.484,3.693 2.484,3.43 2.484,3.258C2.247,3.258 1.419,3.258 0,3.258L0,3.516ZM13.013,3.438C13.013,7.219 13.013,9.453 13.013,10.141C13.013,11.946 14.171,14.433 16.473,14.433C18.776,14.433 16.9,14.433 17.838,14.433C18.776,14.433 20.652,13.832 21.59,13.058C21.59,13.574 21.59,14.032 21.59,14.433L24.001,14.433L24.001,3.433L21.59,3.433C21.59,7.329 21.59,9.478 21.59,9.879C21.59,10.48 20.278,12.371 18.69,12.371C17.103,12.371 18.039,12.371 17.201,12.371C16.364,12.371 15.682,11.683 15.682,10.652C15.682,9.965 15.682,7.558 15.682,3.433L13.013,3.438ZM29.206,-0.004L29.206,4.182C29.625,3.875 29.834,3.722 29.834,3.722C29.834,3.722 30.981,2.918 32.666,2.918C34.352,2.918 37.989,3.691 37.989,7.902L37.989,9.362C37.989,11.549 36.403,14.169 33.731,14.434C33.182,14.478 32.906,14.478 32.207,14.388L31.962,14.356C31.355,14.272 30.756,14.127 29.739,13.293C29.587,13.171 29.409,13.012 29.206,12.817L29.206,14.434L26.989,14.434L26.989,-0.004L29.206,-0.004ZM32.501,5.23C30.44,5.23 29.942,5.794 29.188,6.618C29.188,7.563 29.134,9.119 29.188,10.233C29.188,11.095 31.081,12.707 32.767,12.707C34.452,12.707 35.517,10.657 35.517,8.766C35.517,6.875 34.562,5.23 32.501,5.23ZM39.875,3.811L42.625,3.811L42.625,14.461L39.875,14.461L39.875,3.811ZM39.875,0.43L42.625,0.43L42.625,2.493L39.875,2.493ZM46.161,3.688C47.721,2.828 49.669,2.742 50.667,2.742C51.665,2.742 55,3.172 55,4.977C55,6.18 55,9.331 55,14.43L52.574,14.43L52.574,8.242C50.956,8.472 49.483,8.93 48.154,9.617C47.027,10.219 47.027,10.821 47.027,11.336C47.027,11.852 47.634,12.797 49.107,12.797C50.089,12.797 50.942,12.597 51.665,12.196C51.627,12.566 51.583,12.824 51.534,12.969C51.459,13.187 51.36,14.43 48.761,14.43C46.161,14.43 44.688,13.055 44.688,11.078C44.688,9.102 46.421,7.899 48.761,7.211C51.1,6.524 52.574,6.18 52.574,5.836C52.574,5.607 52.574,5.321 52.574,4.977C52.458,4.576 51.765,4.404 50.494,4.461C49.223,4.518 47.778,4.862 46.161,5.492C46.161,4.748 46.161,4.146 46.161,3.688Z" fill="#E4001F" stroke="#000000" stroke-width="1.000000"/>
</svg>