<svg xmlns="http://www.w3.org/2000/svg" viewBox="0 0 393.299988 93.199997" width="67.519293" height="16.000000">
  <path d="M0,14.6v78.6h78.6V48.3h-8.7v36.2H8.7V23.3h36.2v-8.7H0zM69.9,0v14.6H55.3v8.7h14.6v14.6h8.7V23.3h14.6v-8.7H78.6V0H69.9z" fill="#F50514"/>
  <path d="M44.9,72.8V34.5h-7.8c0,2.6 -0.9,4.6 -2.2,5.8c-1.4,1.2 -3.5,1.7 -6,1.7h-1v6.3h8.2v24.5C36.2,72.8 44.9,72.8 44.9,72.8zM135.2,53.1c0,-8.8 -4,-15.7 -12.1,-15.7s-12.3,6.9 -12.3,15.7c0,8.8 4.2,15.7 12.3,15.7S135.2,61.8 135.2,53.1L135.2,53.1zM101.7,53.1c0,-13.2 8.3,-23.1 21.4,-23.1c13.1,0 21.3,9.8 21.3,23.1c0,13.2 -8.2,23 -21.3,23C110,76.1 101.7,66.3 101.7,53.1zM152.1,30.9h9.1L176,55.5c1.4,2.4 3.1,6.2 3.1,6.2h0.1c0,0 -0.2,-4.6 -0.2,-7.7V30.9h8.9v44.2h-8.7L164,50.6c-1.4,-2.3 -3.2,-6.1 -3.2,-6.1h-0.1c0,0 0.2,4.6 0.2,7.7v22.8h-8.9L152.1,30.9L152.1,30.9zM198.1,30.9h32.6v7.5h-23.6v9.9h20.7v7.4h-20.7v11.9h23.8v7.5h-32.8L198.1,30.9L198.1,30.9zM248.9,51.8h9.3c4.7,0 7.2,-2.6 7.2,-6.6c0,-4.1 -2.6,-6.5 -7.1,-6.5h-9.4L248.9,51.8L248.9,51.8zM239.6,30.9h19.5c5.1,0 9,1.5 11.6,4.1c2.5,2.5 4,6 4,10.1c0,8.3 -5.5,14 -14.8,14h-10.9v16h-9.3L239.6,30.9L239.6,30.9zM281.3,30.9h9v36.7h20.8v7.5h-29.8L281.3,30.9L281.3,30.9zM315.9,60.9v-30h9v30c0,4.6 2.3,7.8 8.3,7.8c5.7,0 8.4,-3.3 8.4,-7.9V30.9h9v30c0,9.5 -5.8,15 -17.2,15C321.9,75.8 315.9,70.4 315.9,60.9L315.9,60.9zM356.9,61.4h8.8c0.6,5.3 3.7,7.4 10,7.4c4.6,0 8.6,-1.6 8.6,-5.7c0,-4.3 -4.2,-5.2 -11,-6.7c-7.9,-1.8 -15.2,-3.9 -15.2,-13.1c0,-8.7 7.1,-13.2 17,-13.2c10,0 16.4,4.9 17.1,13.8h-8.6c-0.5,-4.5 -4,-6.7 -8.6,-6.7c-4.8,0 -8,2 -8,5.2c0,3.6 3.1,4.6 9.7,6.1c9.1,2 16.6,4.1 16.6,13.7c0,9 -7.3,14 -17.2,14C364,76.1 357.2,70.8 356.9,61.4L356.9,61.4z" fill="#F50514"/>
</svg>