<svg xmlns="http://www.w3.org/2000/svg" viewBox="0 0 752.700012 132.869995" width="62.310766" height="11.000000">
  <path d="M-0,123.21L-0,7.85L48.38,7.85C64.7,8.02 80.44,8.88 91.37,23.56C94.43,27.69 98.66,35.3 98.66,48.07C98.66,64.13 91.66,73.79 86.86,78.29C78.26,86.9 66.74,87.78 55.38,88.3L34.25,88.3L34.25,123.21L-0,123.21zM47.36,61.55C53.05,61.4 59.46,61.1 63.54,56.94C64.7,55.72 66.6,53.26 66.6,49.25C66.45,45.27 64.7,42.79 63.68,41.57C58.73,36.19 50.71,36.8 44.16,36.8L34.68,36.8L34.68,61.55L47.36,61.55" fill="#2C4285" stroke="#000000" stroke-width="0.011000"/>
  <path d="M154.18,123.34L152.87,115.66C148.5,119.08 140.48,125.79 126.06,125.79C123.58,125.79 112.8,125.45 105.36,119.26C102.16,116.47 96.62,109.77 96.62,98.68C96.62,96.06 97.35,91.6 101.57,86.05C107.55,78.04 114.69,75.87 123.87,73.73L139.32,71.81C141.07,71.31 142.96,70.83 145,70.51C145.44,70.34 147.92,70 149.23,69.02C150.54,68.05 151.56,64.29 151.56,62.48C151.56,59.22 147.33,56.55 140.78,56.55C134.95,56.55 132.18,58.66 130.72,60.79C129.99,61.93 129.7,62.9 129.55,65.53L100.26,65.35C101.57,58.66 102.89,53.27 107.69,47.72C113.67,41.01 123.14,36.77 141.65,36.77C145.15,36.77 159.43,35.3 169.92,42.33C174.15,45.11 176.92,48.39 178.81,52.79C182.02,59.65 181.14,67.96 181.14,75.16L181.14,98.18C181,112.55 182.02,115.16 184.64,123.34L154.18,123.34zM151.12,86.29C146.9,87.76 142.52,89.08 138.15,90.55L134.95,91.52C133.34,91.85 128.39,92.92 128.39,99.13C128.39,101.92 129.99,106.97 136.4,106.97C137.28,106.97 141.21,106.59 143.25,105.94C149.08,104.31 149.52,100.52 151.12,98.87L151.12,86.29" fill="#2C4285" stroke="#000000" stroke-width="0.011000"/>
  <path d="M242.35,123.42L242.35,82.56C242.35,87.43 243.66,66.6 239.29,64.55C237.83,63.84 235.06,62.42 231.71,62.49C227.92,62.57 223.7,64.4 222.24,67.77C220.64,71.88 220.05,75.65 220.2,84.21L220.2,123.45L188.72,123.45L188.72,38.87L218.45,38.87L218.89,48.69C222.97,43.7 227.78,37.24 245.26,37.24C258.09,37.24 267.85,41.71 271.79,54.7C272.66,57.98 273.1,61.15 273.39,67.89L273.39,123.42L242.35,123.42" fill="#2C4285" stroke="#000000" stroke-width="0.011000"/>
  <path d="M417.23,63.31C416.64,60.09 414.31,54.76 406.3,54.76C402.8,54.76 400.18,55.7 398.86,56.52C398.14,56.83 396.97,58.94 396.97,61.36C396.97,62 397.55,63.92 399.45,65.06C400.61,65.72 403.38,66.52 406.59,66.88L418.98,70.1C427.72,72.32 435.3,73.88 441.42,80C444.48,82.9 446.08,86.66 446.52,88.19C447.98,92.56 447.25,95.98 447.25,97.44C447.25,107.41 442.44,113.41 439.67,115.99C433.69,121.47 424.22,125.61 406.88,125.61C392.45,125.61 383.42,121.82 378.02,118.69C366.51,112.01 365.93,99.73 365.2,95.87L395.22,95.77C395.51,98.67 395.95,100.84 398.28,102.92C400.18,104.7 402.22,105.92 407.61,105.92C414.02,105.92 417.66,102.83 417.81,100.02C417.96,99.69 417.96,97.43 417.08,96.3C415.62,93.89 411.69,92.87 406.01,91.41C406.01,91.41 388.52,87.65 387.21,87.02C383.27,85.21 367.39,81.64 367.39,63.92C367.39,53.96 372.49,48.64 375.4,45.9C380.79,41.22 389.68,36.88 405.57,36.88C409.07,36.88 423.93,36.72 435.01,44.29C438.07,46.38 440.54,48.96 442.44,52.02C445.06,56.36 445.5,61.55 445.79,63.31L417.23,63.31" fill="#2C4285" stroke="#000000" stroke-width="0.011000"/>
  <path d="M525.5,113.75C520.4,118.92 509.91,125.71 492.57,125.71C487.03,125.71 471.73,125.39 460.51,112.13C455.84,106.48 450.16,97.09 450.16,80.26C450.16,77.34 450.16,70.71 452.93,63.44C459.2,45.01 476.25,36.6 494.17,36.76C498.98,36.76 513.99,37.24 524.78,48.24C530.17,53.74 537.02,63.76 536.87,81.56C536.87,85.91 536.58,102.43 525.5,113.75zM502.19,62.68C499.42,60.09 495.19,59.57 493.73,59.57C490.09,59.57 487.47,61.68 486.59,62.32C482.81,65.4 480.04,70.07 480.04,80.58C480.04,88.83 481.93,102.63 493.59,102.63C496.94,102.63 500.15,101.75 502.19,99.34C504.96,96.26 507.87,90.71 507.73,81C507.73,80.52 507.87,68.5 502.19,62.68" fill="#2C4285" stroke="#000000" stroke-width="0.011000"/>
  <path d="M632.32,38.6L663.22,38.6L663.22,123.57L632.32,123.57L632.32,38.6zM632.32,7.09L663.22,7.09L663.22,29.2L632.32,29.2L632.32,7.09z" fill="#2C4285" stroke="#000000" stroke-width="0.011000"/>
  <path d="M722.68,71.09C720.35,60.89 715.39,60.38 709.85,60.38C705.34,60.38 703.88,61.91 702.42,63.18C698.49,66.53 697.17,70.69 697.17,81.05C697.17,81.83 696.74,95.68 704.32,100.94C706.5,102.38 707.52,102.47 710.14,102.47C711.02,102.47 713.64,102.56 715.97,101.45C719.03,100.02 722.24,97.4 722.82,90.21L752.7,89.97C752.41,91.89 751.24,98.67 748.33,104.25C740.89,119.07 725.74,125.25 710.44,125.25C704.17,125.25 699.8,124.3 697.17,123.82C685.08,120.79 674.44,112.33 669.78,100.22C668.47,96.57 666.72,90.99 666.72,81.73C666.72,77.91 666.86,68.03 672.25,58.15C672.98,56.56 675.46,52.57 678.96,48.91C690.33,37.75 707.23,37.43 711.31,37.43C727.05,37.43 736.81,43.33 741.62,47.79C743.08,49.23 745.99,53.08 748.33,58.34C750.22,62.64 751.24,66.47 751.97,71.09L722.68,71.09" fill="#2C4285" stroke="#000000" stroke-width="0.011000"/>
  <path d="M362.29,98.64L362.29,75.65C362.29,68.47 362.29,58.81 359.23,51.96C357.19,47.54 355.73,45.09 351.5,42.33C341.01,35.3 325.56,36.63 322.06,36.63C303.56,36.63 294.08,41.51 288.11,48.21C283.3,53.77 282.28,59.2 280.97,65.91L310.26,65.91C310.41,63.28 310.84,62.31 311.43,61.15C313.03,59.04 315.36,56.37 321.19,56.37C327.75,56.37 331.97,59.71 331.97,62.98C331.97,64.77 331.83,67.7 330.52,68.67C329.21,69.66 325.85,70.83 325.27,70.99C323.81,71.24 321.92,71.68 319.59,72.29L304.29,74.23C295.1,76.35 287.96,78.22 281.99,86.22C277.62,91.77 277.62,96.84 277.62,99.45C277.62,110.56 282.43,116.97 285.63,119.75C293.06,125.95 303.7,125.71 306.33,125.71C320.75,125.71 328.33,119.37 332.85,115.95L334.16,123.96L365.78,123.96C364.03,118.41 362.14,115.51 362.29,98.64zM323.67,106.43C321.63,107.09 318.13,106.94 317.26,106.9C312.01,106.55 309.24,101.77 309.24,98.99C309.24,92.78 314.19,91.77 315.8,91.45L319.15,90.52C323.38,89.05 327.75,87.81 331.97,86.34L332.12,97.14C330.81,99.57 329.35,104.8 323.67,106.43" fill="#2C4285" stroke="#000000" stroke-width="0.011000"/>
  <path d="M595.02,123.26L595.02,82.14C595.02,87.01 596.47,66.44 592.1,64.37C590.65,63.69 587.88,62.26 584.67,62.33C580.88,62.41 576.51,64.24 575.2,67.61C573.45,71.72 572.58,74.52 572.72,83.06L572.43,123.42L541.68,123.29L541.68,38.71L571.26,38.71L571.7,48.53C575.78,43.54 580.59,37.08 598.22,37.08C610.9,37.08 620.67,42.47 624.6,55.46C625.48,58.74 625.62,60.88 626.06,67.61L626.06,123.29L595.02,123.26" fill="#2C4285" stroke="#000000" stroke-width="0.011000"/>
</svg>