<svg xmlns="http://www.w3.org/2000/svg" viewBox="0 0 200.000000 36.090000" width="55.415380" height="10.000000">
  <path d="M78.93,17.95C78.93,24.63 83.88,29.56 92.14,29.56C95.63,29.56 98.92,29.01 102.32,27.42L105.42,31.65C101.14,33.91 97.02,35.09 90.7,35.09C77.51,35.09 67.81,28.74 67.81,17.95L67.81,17.95C67.81,7.17 77.51,0.81 90.7,0.81C97.02,0.81 100.66,1.74 105.11,3.65L101.94,8.5C98.57,6.71 95.63,6.34 92.14,6.34C83.88,6.34 78.93,11.26 78.93,17.94" fill="#D7063B" stroke="#000000"/>
  <path d="M129.26,0.8C116.49,0.8 107.28,7.16 107.28,17.95C107.28,28.74 116.49,35.09 129.26,35.09C142.03,35.09 151.24,28.74 151.24,17.95C151.24,7.16 142.03,0.8 129.26,0.8M129.26,29.76C122.23,29.76 118.35,24.48 118.35,17.94C118.35,11.41 122.23,6.13 129.26,6.13C136.28,6.13 140.16,11.41 140.16,17.94C140.16,24.48 136.28,29.76 129.26,29.76" fill="#D7063B" stroke="#000000"/>
  <path d="M184.45,20.43L184.45,34.23L195,34.23L195,1.67L184.45,1.67L184.45,14.08L168.31,14.08L168.31,1.67L157.78,1.67L157.78,34.23L168.31,34.23L168.31,20.43L184.45,20.43z" fill="#D7063B" stroke="#000000"/>
  <path d="M50.33,34.23L61.44,34.23L61.44,1.67L50.33,1.67L50.33,34.23z" fill="#D7063B" stroke="#000000"/>
  <path d="M18.45,16.57L18.45,19.68C23.68,23.73 29,29.1 32.91,34.23L45.35,34.23C41.02,29.14 34.38,23.1 29.49,20.06C35.23,19.82 41.63,17.5 41.63,10.91C41.63,2.45 32.6,0.91 23.46,0.91C16,0.91 9.11,1.25 5,1.59L5,34.23L15.37,34.23L15.37,6.49C17.29,6.29 19.35,6.06 23.51,6.06C28.85,6.06 31.55,7.82 31.55,10.91C31.55,13.54 30.44,16.68 18.45,16.57" fill="#D7063B" stroke="#000000"/>
</svg>