<svg xmlns="http://www.w3.org/2000/svg" viewBox="0 0 1058.000000 225.000000" width="47.022221" height="10.000000">
  <path d="M241,12h44.7v201.8h-44.7z" fill="#010101"/>
  <path d="M731,12l-31,112l-1,0l-32,-112l-58,0l-32,202l44,0l20,-145l1,0l39,145l37,0l39,-145l0,0l21,145l45,0l-33,-202z" fill="#010101"/>
  <path d="M1005,214l47,0 -80,-202 -62,0 -80,202 44,0 16,-41 99,0 16,41zM940,48l0,0 34,87 -69,0 35,-87z" fill="#010101"/>
  <path d="M433,94l0,41 71,0 0,3c0,27 -24,46 -62,46 -38,0 -68,-21 -68,-70 0,-51 32,-70 69,-70 29,0 50,5 74,17l21,-34c-25,-15 -62,-24 -96,-24 -61,0 -116,33 -116,112 0,69 48,108 114,108 74,0 109,-35 110,-98 0,-9 0,-18 -1,-31l-116,0 0,0z" fill="#010101"/>
  <path d="M151,96c-28,-6 -47,-3 -75,-9 -18,-3 -23,-10 -23,-18 0,-17 22,-26 51,-26 23,0 46,6 68,16l22,-37c-24,-12 -57,-20 -95,-20 -36,0 -92,17 -92,70 0,30 20,49 47,55 25,6 41,5 71,9 20,3 28,10 28,21 0,16 -21,26 -51,26 -26,0 -52,-5 -78,-16l-18,38c32,14 65,20 93,20 61,0 102,-27 102,-71 0,-30 -18,-51 -50,-58z" fill="#010101"/>
</svg>