<svg xmlns="http://www.w3.org/2000/svg" viewBox="0 0 566.929993 566.929993" width="18.000000" height="18.000000">
  <path d="M566.93,566.93c-180.31,-80.93 -386.62,-80.93 -566.93,0V0h566.93V566.93z" fill="#141E8C"/>
  <path d="M67.23,172.99c-15.19,0.09 -27.75,11.88 -28.8,27.03H25.71v-40.02h99.21c0,0 0.8,30.92 -28.54,63.7c0,0 -27.92,32.42 -28.63,46.65h16.08c23.06,0 25.44,-27.03 25.44,-27.03h13.25v40.11H21.11c0,0 -3.71,-30.39 31.45,-67.23c0,0 21.65,-24.21 26.68,-43.29L67.23,172.99z" fill="#FFFFFF"/>
  <path d="M319.91,283.33v-13.07h-3c-5.46,0.01 -9.89,-4.41 -9.9,-9.86c0,-0.01 0,-0.02 0,-0.03v-77.39c-0.01,-5.46 4.41,-9.89 9.86,-9.9c0.01,0 0.02,0 0.03,0h3v-13.07h-65.82v13.08h3c5.47,-0.05 9.94,4.35 9.98,9.81c0,0.03 0,0.05 0,0.08v77.39c-0,5.47 -4.43,9.9 -9.9,9.9c-0.03,0 -0.05,0 -0.08,0h-3v13.08L319.91,283.33z" fill="#FFFFFF"/>
  <path d="M240.48,283.42v-40.11h-13.25c0,0 -2.47,27.03 -25.53,27.03h-13.25v-42.05h4.68c5.48,-0.04 9.95,4.37 9.98,9.85c0,0.04 0,0.09 0,0.13v4.95h13.08V200.02h-13.08v5.04c0.04,5.48 -4.37,9.95 -9.85,9.98c-0.04,0 -0.09,0 -0.13,0h-4.68v-42.05h13.25c23.06,0 25.53,27.03 25.53,27.03h13.25v-40.11H135.97v13.16h3c5.46,-0.01 9.89,4.41 9.9,9.86c0,0.01 0,0.02 0,0.03v77.39c0.01,5.46 -4.41,9.89 -9.86,9.9c-0.01,0 -0.02,0 -0.03,0h-3v13.07L240.48,283.42z" fill="#FFFFFF"/>
  <path d="M389,172.99c15.2,0.04 27.76,11.86 28.71,27.03h12.81v-40.02h-94.8c0,0 -15.02,19.61 24.21,63.7c0,0 27.83,32.42 28.54,46.65h-15.99c-23.06,0 -25.53,-27.03 -25.53,-27.03h-13.34v40.11h95.59c0,0 17.41,-18.73 -25.62,-67.23c0,0 -22.53,-23.15 -26.68,-43.29L389,172.99z" fill="#FFFFFF"/>
  <path d="M499.87,172.99c15.18,0.08 27.72,11.88 28.71,27.03h12.72v-40.02h-94.71c0,0 -15.02,19.61 24.21,63.7c0,0 27.83,32.42 28.54,46.65h-15.99c-23.06,0 -25.53,-27.03 -25.53,-27.03h-13.25v40.11h95.59c0,0 17.32,-18.73 -25.62,-67.23c0,0 -22.53,-23.15 -26.59,-43.29L499.87,172.99z" fill="#FFFFFF"/>
</svg>